<svg width="38" height="61" viewBox="0 0 38 61" fill="none" xmlns="http://www.w3.org/2000/svg">
<g filter="url(#filter0_d_81_39)">
<path d="M8.32104 5.78857L8.32104 42.907" stroke="#EBEBEB" stroke-width="4.7" stroke-linecap="square"/>
<path d="M24.6776 24.329C28.5526 24.329 31 19.4539 31 13.4401C31 1.46228 23.0655 2.55116 17.0271 2.55116H9.21746C8.69988 2.55116 8.2803 2.96903 8.2803 3.4845V24.329H14.6842" stroke="#EBEBEB" stroke-width="4.7" stroke-linecap="round"/>
</g>
<circle cx="8.34951" cy="59.592" r="1.01974" fill="#EBEBEB"/>
<mask id="path-4-inside-1_81_39" fill="white">
<path fill-rule="evenodd" clip-rule="evenodd" d="M4.13748 50.1995L5.78382 46.2002L10.7286 46.2735L12.4075 50.2223C11.014 52.6819 9.99795 55.2547 9.26896 57.9139L8.49757 57.8308L8.52611 51.1413C8.62477 51.1046 8.71365 51.0468 8.78786 50.9727L8.78867 50.9718C9.07897 50.6818 9.07897 50.2125 8.78867 49.9225C8.4992 49.6333 8.0287 49.6325 7.7384 49.9225C7.44893 50.2117 7.44811 50.6818 7.7384 50.9718C7.83218 51.0655 7.94471 51.1291 8.06376 51.1617L8.04256 57.7884L7.15945 57.8283C6.51282 55.1537 5.51718 52.6078 4.13748 50.1995ZM5.93631 44.7443L10.7123 44.8021L10.7066 45.2266L10.7009 45.6511L5.92408 45.5924L5.92979 45.1679L5.93631 44.7443Z"/>
</mask>
<path fill-rule="evenodd" clip-rule="evenodd" d="M4.13748 50.1995L5.78382 46.2002L10.7286 46.2735L12.4075 50.2223C11.014 52.6819 9.99795 55.2547 9.26896 57.9139L8.49757 57.8308L8.52611 51.1413C8.62477 51.1046 8.71365 51.0468 8.78786 50.9727L8.78867 50.9718C9.07897 50.6818 9.07897 50.2125 8.78867 49.9225C8.4992 49.6333 8.0287 49.6325 7.7384 49.9225C7.44893 50.2117 7.44811 50.6818 7.7384 50.9718C7.83218 51.0655 7.94471 51.1291 8.06376 51.1617L8.04256 57.7884L7.15945 57.8283C6.51282 55.1537 5.51718 52.6078 4.13748 50.1995ZM5.93631 44.7443L10.7123 44.8021L10.7066 45.2266L10.7009 45.6511L5.92408 45.5924L5.92979 45.1679L5.93631 44.7443Z" fill="#EBEBEB"/>
<path d="M4.13748 50.1995L-0.211187 48.4126L-1.08629 50.5384L0.0566092 52.5333L4.13748 50.1995ZM5.78382 46.2002L5.8536 41.5028L2.65279 41.4553L1.43516 44.4132L5.78382 46.2002ZM10.7286 46.2735L15.0564 44.4367L13.8594 41.6215L10.7984 41.5761L10.7286 46.2735ZM12.4075 50.2223L16.4995 52.5366L17.6425 50.5192L16.7353 48.3855L12.4075 50.2223ZM9.26896 57.9139L8.76489 62.5847L12.7462 63.0136L13.804 59.1549L9.26896 57.9139ZM8.49757 57.8308L3.79551 57.8108L3.77743 62.0474L7.99349 62.5016L8.49757 57.8308ZM8.52611 51.1413L6.88707 46.7381L3.83791 47.871L3.82405 51.1213L8.52611 51.1413ZM8.06376 51.1617L12.7658 51.1767L12.7773 47.5809L9.30622 46.6307L8.06376 51.1617ZM8.04256 57.7884L8.25508 62.4815L12.7303 62.2792L12.7446 57.8034L8.04256 57.7884ZM7.15945 57.8283L2.5888 58.9314L3.49907 62.6965L7.37198 62.5214L7.15945 57.8283ZM5.93631 44.7443L5.99331 40.0467L1.30686 39.99L1.23476 44.672L5.93631 44.7443ZM10.7123 44.8021L15.4139 44.8652L15.4772 40.1616L10.7693 40.1046L10.7123 44.8021ZM10.7066 45.2266L15.4082 45.2897L15.4082 45.2897L10.7066 45.2266ZM10.7009 45.6511L10.6431 50.3486L15.3394 50.4063L15.4025 45.7142L10.7009 45.6511ZM5.92408 45.5924L1.2224 45.5293L1.15916 50.2321L5.86629 50.2899L5.92408 45.5924ZM5.92979 45.1679L1.22823 45.0957L1.22811 45.1048L5.92979 45.1679ZM8.48614 51.9865L10.1325 47.9871L1.43516 44.4132L-0.211187 48.4126L8.48614 51.9865ZM5.71405 50.8975L10.6588 50.9709L10.7984 41.5761L5.8536 41.5028L5.71405 50.8975ZM6.40077 48.1103L8.07974 52.0591L16.7353 48.3855L15.0564 44.4367L6.40077 48.1103ZM8.31558 47.908C6.70949 50.7427 5.55371 53.6824 4.73389 56.6729L13.804 59.1549C14.4422 56.8271 15.3185 54.6211 16.4995 52.5366L8.31558 47.908ZM9.77303 53.2431L9.00164 53.16L7.99349 62.5016L8.76489 62.5847L9.77303 53.2431ZM13.1996 57.8508L13.2282 51.1613L3.82405 51.1213L3.79551 57.8108L13.1996 57.8508ZM10.1651 55.5445C10.9161 55.2655 11.5755 54.8314 12.1127 54.2946L5.46297 47.6507C5.85184 47.2622 6.33349 46.9437 6.88707 46.7381L10.1651 55.5445ZM12.1127 54.2946L12.1136 54.2938L5.46378 47.6499L5.46297 47.6507L12.1127 54.2946ZM12.1136 54.2938C14.2401 52.1691 14.2401 48.7253 12.1136 46.6006L5.46378 53.2444C3.91779 51.6998 3.91779 49.1945 5.46378 47.6499L12.1136 54.2938ZM12.1136 46.6006C9.99116 44.4801 6.54345 44.4726 4.41351 46.6006L11.0633 53.2444C9.51394 54.7924 7.00723 54.7865 5.46378 53.2444L12.1136 46.6006ZM4.41351 46.6006C2.29112 48.7211 2.28357 52.1657 4.41351 54.2938L11.0633 47.6499C12.6126 49.1979 12.6067 51.7024 11.0633 53.2444L4.41351 46.6006ZM4.41351 54.2938C5.0913 54.9709 5.92401 55.447 6.8213 55.6926L9.30622 46.6307C9.96541 46.8112 10.5731 47.1601 11.0633 47.6499L4.41351 54.2938ZM3.36168 51.1467L3.34048 57.7734L12.7446 57.8034L12.7658 51.1767L3.36168 51.1467ZM7.83003 53.0953L6.94692 53.1352L7.37198 62.5214L8.25508 62.4815L7.83003 53.0953ZM11.7301 56.7253C10.9832 53.636 9.82701 50.6736 8.21834 47.8657L0.0566092 52.5333C1.20735 54.5419 2.04241 56.6714 2.5888 58.9314L11.7301 56.7253ZM5.87931 49.4418L10.6553 49.4997L10.7693 40.1046L5.99331 40.0467L5.87931 49.4418ZM6.01059 44.739L6.00488 45.1635L15.4082 45.2897L15.4139 44.8652L6.01059 44.739ZM6.00488 45.1635L5.99917 45.5879L15.4025 45.7142L15.4082 45.2897L6.00488 45.1635ZM10.7586 40.9535L5.98187 40.8949L5.86629 50.2899L10.6431 50.3486L10.7586 40.9535ZM10.6258 45.6555L10.6315 45.2311L1.22811 45.1048L1.2224 45.5293L10.6258 45.6555ZM10.6313 45.2402L10.6379 44.8166L1.23476 44.672L1.22824 45.0957L10.6313 45.2402Z" fill="#EBEBEB" mask="url(#path-4-inside-1_81_39)"/>
<defs>
<filter id="filter0_d_81_39" x="1.9303" y="0.175781" width="35.4197" height="53.0811" filterUnits="userSpaceOnUse" color-interpolation-filters="sRGB">
<feFlood flood-opacity="0" result="BackgroundImageFix"/>
<feColorMatrix in="SourceAlpha" type="matrix" values="0 0 0 0 0 0 0 0 0 0 0 0 0 0 0 0 0 0 127 0" result="hardAlpha"/>
<feOffset dy="4"/>
<feGaussianBlur stdDeviation="2"/>
<feComposite in2="hardAlpha" operator="out"/>
<feColorMatrix type="matrix" values="0 0 0 0 0 0 0 0 0 0 0 0 0 0 0 0 0 0 0.25 0"/>
<feBlend mode="normal" in2="BackgroundImageFix" result="effect1_dropShadow_81_39"/>
<feBlend mode="normal" in="SourceGraphic" in2="effect1_dropShadow_81_39" result="shape"/>
</filter>
</defs>
</svg>
