<svg width="45" height="40" viewBox="0 0 45 40" fill="none" xmlns="http://www.w3.org/2000/svg">
<path d="M26.4911 19.9608C26.4911 22.1787 24.6932 23.9767 22.4753 23.9767C20.2574 23.9767 18.4595 22.1787 18.4595 19.9608C18.4595 17.743 20.2574 15.945 22.4753 15.945C24.6932 15.945 26.4911 17.743 26.4911 19.9608Z" fill="#FF9900"/>
<path d="M22.4737 29.1589C22.1387 29.1672 21.7438 29.1722 21.3472 29.1722C16.6632 29.1722 12.1458 28.4641 7.89502 27.1493L8.21662 27.2343C5.96542 26.5078 4.01416 25.4364 2.31618 24.0633L2.35118 24.09C1.03645 23.1385 0.151635 21.6655 0.00166632 19.9792L0 19.9575C0 17.3014 2.91106 14.7019 7.80004 13.0056C11.9858 11.6276 16.8032 10.8327 21.8055 10.8327C22.0371 10.8327 22.2687 10.8344 22.5003 10.8377H22.4653C22.6586 10.8344 22.8852 10.8327 23.1135 10.8327C28.0542 10.8327 32.8115 11.6142 37.2706 13.0606L36.9456 12.969C39.1202 13.6755 41.0081 14.6953 42.6661 15.9917L42.6261 15.9617C43.9175 16.8715 44.789 18.3012 44.9356 19.9392L44.9373 19.9608C44.9373 22.7203 41.6813 25.513 36.4341 27.2493C32.4966 28.4641 27.9692 29.1639 23.2785 29.1639C22.9952 29.1639 22.7136 29.1606 22.432 29.1556H22.4737V29.1589ZM22.4737 12.7623C22.297 12.759 22.0871 12.759 21.8771 12.759C17.0764 12.759 12.4524 13.5122 8.11498 14.9069L8.43324 14.8186C3.93751 16.3866 1.92127 18.5311 1.92127 19.9625C1.92127 21.4505 4.08915 23.795 8.84149 25.418C12.589 26.5795 16.8965 27.2493 21.3606 27.2493C21.7521 27.2493 22.1421 27.2443 22.5303 27.2343L22.4737 27.236C22.7169 27.241 23.0035 27.2443 23.2901 27.2443C27.7626 27.2443 32.0783 26.5778 36.1458 25.3397L35.8342 25.4214C40.7665 23.7817 43.0327 21.4372 43.0327 19.9558C42.8627 18.8927 42.2629 17.9962 41.423 17.4314L41.4097 17.423C39.9667 16.2999 38.2837 15.3951 36.4607 14.8002L36.3441 14.7669C32.3983 13.4905 27.8575 12.754 23.1468 12.754C22.9102 12.754 22.6753 12.7557 22.4403 12.759H22.4753L22.4737 12.7623Z" fill="#FF9900"/>
<path d="M13.3621 39.9767C13.3354 39.9767 13.3038 39.9783 13.2738 39.9783C12.5189 39.9783 11.8107 39.78 11.1992 39.4335L11.2209 39.4451C8.92468 38.1121 8.12485 34.2929 9.08798 29.2122C10.2494 24 12.1323 19.391 14.6602 15.2152L14.5452 15.4218C17.043 10.9977 20.0607 7.2135 23.585 3.97084L23.6183 3.94085C25.1563 2.53447 26.9559 1.37971 28.9289 0.56155L29.0505 0.516559C29.7287 0.18996 30.5252 0 31.3667 0C32.2015 0 32.993 0.188294 33.6995 0.523224L33.6662 0.509894C36.0574 1.88627 36.8505 6.10873 35.7291 11.5176C34.5294 16.4616 32.6997 20.8157 30.2936 24.7798L30.4102 24.5749C27.9907 28.9573 25.063 32.7099 21.6354 35.9375L21.612 35.9592C20.0157 37.4205 18.1411 38.6086 16.0782 39.4285L15.9549 39.4718C15.1884 39.7734 14.3019 39.9583 13.3738 39.98H13.3638L13.3621 39.9767ZM15.37 15.9034L16.2015 16.3833C13.9003 20.1825 12.094 24.5915 11.0259 29.2806L10.9693 29.5805C10.0811 34.2612 10.9376 37.0756 12.169 37.7888C12.4873 37.9588 12.8639 38.0571 13.2638 38.0571C13.2971 38.0571 13.3321 38.0571 13.3654 38.0554H13.3604C14.9518 38.0554 17.4562 37.0473 20.3523 34.5195C23.645 31.4085 26.441 27.8159 28.6372 23.8484L28.7506 23.6234C30.9468 20.0308 32.7014 15.87 33.7912 11.4476L33.8545 11.1443C34.9026 6.04874 33.9978 2.92939 32.7114 2.18288C32.3148 2.02624 31.8549 1.93626 31.375 1.93626C30.7685 1.93626 30.1953 2.08123 29.6887 2.33618L29.7104 2.32618C27.8474 3.10102 26.2477 4.13581 24.8664 5.40221L24.878 5.39221C21.4771 8.52656 18.5927 12.1525 16.3198 16.17L16.2048 16.3899L15.37 15.9034Z" fill="#FF9900"/>
<path d="M31.5867 40C29.4105 40 26.6544 38.6886 23.7717 36.2075C20.1475 32.9032 17.0781 29.0723 14.6669 24.8198L14.547 24.5916C12.1641 20.6774 10.2962 16.135 9.18973 11.3027L9.12974 10.9944C8.8598 9.81296 8.70483 8.45825 8.70483 7.06687C8.70483 6.18872 8.76649 5.32723 8.8848 4.48241L8.87313 4.57905C9.01477 2.91607 9.88625 1.48303 11.1593 0.581553L11.176 0.569889C13.5588 -0.813156 17.6163 0.609881 21.7438 4.28245C25.1131 7.47179 27.9891 11.136 30.272 15.1802L30.392 15.4101C32.7715 19.2377 34.6528 23.6767 35.7942 28.4041L35.8575 28.714C36.1291 29.8954 36.2858 31.2535 36.2858 32.6465C36.2858 33.608 36.2124 34.5511 36.0691 35.4726L36.0825 35.3693C35.9108 37.0723 35.0094 38.537 33.7013 39.4618L33.683 39.4735C33.1031 39.805 32.4099 40 31.6717 40C31.6417 40 31.6117 40 31.5817 39.9983H31.5867V40ZM16.2099 23.6318C18.6394 27.9159 21.5705 31.5818 24.9931 34.7228L25.0264 34.7528C28.6357 37.8571 31.4984 38.5286 32.7382 37.8088C34.0262 37.0656 34.9694 34.0163 33.9946 29.0889C32.8248 24.2733 31.0169 20.0342 28.6307 16.19L28.739 16.3766C26.4411 12.2841 23.695 8.77485 20.494 5.73881L20.474 5.72048C16.5849 2.26454 13.4338 1.48803 12.1458 2.23121C11.3576 2.87274 10.8394 3.81755 10.7711 4.88566V4.89732C10.6794 5.54719 10.6278 6.29703 10.6278 7.0602C10.6278 8.32161 10.7711 9.54802 11.041 10.7278L11.0194 10.6178C12.1408 15.5368 13.9304 19.8809 16.3216 23.8217L16.2116 23.6268L16.2099 23.6318Z" fill="#FF9900"/>
</svg>
