<svg width="289" height="281" viewBox="0 0 289 281" fill="none" xmlns="http://www.w3.org/2000/svg">
<path d="M96.3581 225.993C96.3581 227.153 95.0222 228.082 93.3379 228.082C91.4211 228.256 90.0853 227.327 90.0853 225.993C90.0853 224.832 91.4211 223.903 93.1055 223.903C94.848 223.729 96.3581 224.658 96.3581 225.993ZM78.2946 223.381C77.888 224.542 79.0497 225.877 80.7921 226.225C82.3023 226.805 84.0447 226.225 84.3932 225.064C84.7417 223.903 83.6382 222.568 81.8957 222.046C80.3856 221.64 78.7012 222.22 78.2946 223.381ZM103.967 222.394C102.282 222.801 101.121 223.903 101.295 225.238C101.469 226.399 102.979 227.153 104.722 226.747C106.406 226.341 107.568 225.238 107.394 224.077C107.219 222.975 105.651 222.22 103.967 222.394ZM142.185 0C61.6251 0 0 61.112 0 141.608C0 205.97 40.5413 261.046 98.4491 280.43C105.884 281.765 108.497 277.18 108.497 273.408C108.497 269.81 108.323 249.962 108.323 237.774C108.323 237.774 67.6656 246.479 59.1275 220.479C59.1275 220.479 52.5062 203.591 42.9807 199.238C42.9807 199.238 29.6799 190.126 43.91 190.3C43.91 190.3 58.3725 191.461 66.3297 205.274C79.0497 227.676 100.366 221.234 108.672 217.403C110.007 208.117 113.783 201.675 117.965 197.845C85.4968 194.247 52.7385 189.546 52.7385 133.715C52.7385 117.755 57.1527 109.746 66.4459 99.5319C64.9357 95.7596 59.9988 80.2059 67.956 60.1254C80.0951 56.3531 108.033 75.7952 108.033 75.7952C119.649 72.5451 132.137 70.8621 144.508 70.8621C156.88 70.8621 169.367 72.5451 180.984 75.7952C180.984 75.7952 208.921 56.295 221.06 60.1254C229.018 80.2639 224.081 95.7596 222.57 99.5319C231.864 109.804 237.556 117.813 237.556 133.715C237.556 189.72 203.345 194.189 170.877 197.845C176.221 202.43 180.751 211.135 180.751 224.774C180.751 244.332 180.577 268.533 180.577 273.292C180.577 277.064 183.249 281.649 190.625 280.314C248.707 261.046 288.087 205.97 288.087 141.608C288.087 61.112 222.745 0 142.185 0ZM56.4558 200.167C55.7007 200.747 55.8749 202.082 56.8623 203.184C57.7916 204.113 59.1275 204.519 59.8826 203.765C60.6377 203.184 60.4634 201.85 59.476 200.747C58.5467 199.818 57.2108 199.412 56.4558 200.167ZM50.1829 195.466C49.7763 196.22 50.3571 197.149 51.5188 197.729C52.4481 198.309 53.6097 198.135 54.0163 197.323C54.4229 196.568 53.8421 195.64 52.6804 195.059C51.5188 194.711 50.5895 194.885 50.1829 195.466ZM69.0015 216.126C68.0722 216.881 68.4207 218.622 69.7565 219.725C71.0924 221.06 72.7768 221.234 73.5319 220.305C74.2869 219.551 73.9385 217.81 72.7768 216.707C71.499 215.372 69.7565 215.198 69.0015 216.126ZM62.3801 207.595C61.4508 208.176 61.4508 209.684 62.3801 211.019C63.3094 212.354 64.8776 212.934 65.6327 212.354C66.562 211.6 66.562 210.091 65.6327 208.756C64.8196 207.421 63.3094 206.841 62.3801 207.595Z" fill="white"/>
</svg>


