<svg width="267" height="267" viewBox="0 0 267 267" fill="none" xmlns="http://www.w3.org/2000/svg">
<path d="M220.844 62.498C220.844 53.6354 213.661 46.4793 204.832 46.4793C196.002 46.4793 188.812 53.6354 188.812 62.498C188.812 71.3279 196.002 78.484 204.832 78.484C213.661 78.484 220.844 71.3279 220.844 62.498Z" fill="url(#paint0_linear_1054_21)"/>
<path d="M242.183 187.538C241.59 200.539 239.415 207.603 237.61 212.294C235.185 218.515 232.292 222.963 227.601 227.628C222.961 232.293 218.514 235.18 212.293 237.578C207.602 239.41 200.511 241.591 187.511 242.211C173.455 242.83 169.291 242.962 133.649 242.962C98.0398 242.962 93.842 242.83 79.7868 242.211C66.7863 241.591 59.729 239.41 55.0371 237.578C48.7839 235.18 44.3692 232.293 39.7039 227.628C35.0055 222.963 32.1129 218.515 29.7209 212.294C27.9151 207.603 25.708 200.539 25.1475 187.538C24.4626 173.483 24.337 169.253 24.337 133.683C24.337 98.0412 24.4626 93.8434 25.1475 79.7882C25.708 66.7876 27.9151 59.7304 29.7209 54.9989C32.1129 48.7852 35.0055 44.3636 39.7039 39.6983C44.3692 35.0399 48.7839 32.1468 55.0371 29.7223C59.729 27.8838 66.7863 25.7355 79.7868 25.1163C93.842 24.4965 98.0398 24.3384 133.649 24.3384C169.291 24.3384 173.455 24.4965 187.511 25.1163C200.511 25.7355 207.602 27.8838 212.293 29.7223C218.514 32.1468 222.961 35.0399 227.601 39.6983C232.292 44.3636 235.185 48.7852 237.61 54.9989C239.415 59.7304 241.59 66.7876 242.183 79.7882C242.835 93.8434 242.993 98.0412 242.993 133.683C242.993 169.253 242.835 173.483 242.183 187.538ZM266.188 78.6945C265.536 64.4876 263.295 54.7814 259.968 46.3276C256.581 37.5569 252.041 30.1241 244.608 22.6912C237.208 15.2915 229.775 10.7512 221.004 7.32491C212.517 4.03004 202.844 1.76311 188.631 1.14388C174.417 0.458413 169.877 0.333372 133.649 0.333372C97.4532 0.333372 92.8803 0.458413 78.667 1.14388C64.4863 1.76311 54.8196 4.03004 46.2931 7.32491C37.5556 10.7512 30.1227 15.2915 22.723 22.6912C15.2901 30.1241 10.7499 37.5569 7.32997 46.3276C4.03511 54.7814 1.79488 64.4876 1.10942 78.6945C0.490177 92.9079 0.332031 97.4546 0.332031 133.683C0.332031 169.879 0.490177 174.419 1.10942 188.632C1.79488 202.813 4.03511 212.512 7.32997 221.006C10.7499 229.743 15.2901 237.209 22.723 244.609C30.1227 252.009 37.5556 256.582 46.2931 260.002C54.8196 263.296 64.4863 265.537 78.667 266.19C92.8803 266.842 97.4532 267 133.649 267C169.877 267 174.417 266.842 188.631 266.19C202.844 265.537 212.517 263.296 221.004 260.002C229.775 256.582 237.208 252.009 244.608 244.609C252.041 237.209 256.581 229.743 259.968 221.006C263.295 212.512 265.536 202.813 266.188 188.632C266.84 174.419 266.999 169.879 266.999 133.683C266.999 97.4546 266.84 92.9079 266.188 78.6945Z" fill="url(#paint1_linear_1054_21)"/>
<path d="M133.647 178.089C109.115 178.089 89.2081 158.215 89.2081 133.683C89.2081 109.111 109.115 89.2112 133.647 89.2112C158.186 89.2112 178.119 109.111 178.119 133.683C178.119 158.215 158.186 178.089 133.647 178.089ZM133.647 65.1731C95.8305 65.1731 65.2031 95.8662 65.2031 133.683C65.2031 171.467 95.8305 202.127 133.647 202.127C171.464 202.127 202.124 171.467 202.124 133.683C202.124 95.8662 171.464 65.1731 133.647 65.1731Z" fill="url(#paint2_linear_1054_21)"/>
<defs>
<linearGradient id="paint0_linear_1054_21" x1="2.7348" y1="264.243" x2="244.786" y2="22.1932" gradientUnits="userSpaceOnUse">
<stop stop-color="#FFD521"/>
<stop offset="0.05" stop-color="#FFD521"/>
<stop offset="0.501119" stop-color="#F50000"/>
<stop offset="0.95" stop-color="#B900B4"/>
<stop offset="0.950079" stop-color="#B900B4"/>
<stop offset="1" stop-color="#B900B4"/>
</linearGradient>
<linearGradient id="paint1_linear_1054_21" x1="2.73733" y1="264.575" x2="244.987" y2="22.3255" gradientUnits="userSpaceOnUse">
<stop stop-color="#FFD521"/>
<stop offset="0.05" stop-color="#FFD521"/>
<stop offset="0.501119" stop-color="#F50000"/>
<stop offset="0.95" stop-color="#B900B4"/>
<stop offset="0.950079" stop-color="#B900B4"/>
<stop offset="1" stop-color="#B900B4"/>
</linearGradient>
<linearGradient id="paint2_linear_1054_21" x1="2.79841" y1="264.581" x2="244.989" y2="22.3902" gradientUnits="userSpaceOnUse">
<stop stop-color="#FFD521"/>
<stop offset="0.05" stop-color="#FFD521"/>
<stop offset="0.501119" stop-color="#F50000"/>
<stop offset="0.95" stop-color="#B900B4"/>
<stop offset="0.950079" stop-color="#B900B4"/>
<stop offset="1" stop-color="#B900B4"/>
</linearGradient>
</defs>
</svg>
