<svg width="188" height="188" viewBox="0 0 188 188" fill="none" xmlns="http://www.w3.org/2000/svg">
<path d="M160.185 160.189H132.329V116.564C132.329 106.161 132.143 92.7697 117.841 92.7697C103.333 92.7697 101.113 104.104 101.113 115.807V160.186H73.2576V70.4757H99.9991V82.7355H100.373C103.05 78.1596 106.917 74.3952 111.563 71.8434C116.209 69.2915 121.461 68.0476 126.758 68.2442C154.991 68.2442 160.196 86.8154 160.196 110.975L160.185 160.189ZM41.8271 58.2129C38.63 58.2135 35.5045 57.266 32.8458 55.4902C30.1872 53.7143 28.1148 51.19 26.8908 48.2363C25.6668 45.2827 25.3461 42.0324 25.9692 38.8965C26.5924 35.7605 28.1314 32.8798 30.3918 30.6186C32.6521 28.3574 35.5321 26.8173 38.6677 26.193C41.8033 25.5687 45.0536 25.8882 48.0076 27.1112C50.9616 28.3342 53.4866 30.4057 55.2633 33.0638C57.04 35.7219 57.9887 38.8472 57.9892 42.0445C57.9896 44.1674 57.5719 46.2695 56.7598 48.231C55.9478 50.1924 54.7574 51.9747 53.2566 53.4761C51.7559 54.9775 49.9741 56.1685 48.013 56.9813C46.0519 57.794 43.9499 58.2126 41.8271 58.2129ZM55.755 160.189H27.8702V70.4757H55.755V160.189ZM174.072 0.012804H13.8727C10.2367 -0.0282304 6.73303 1.37602 4.13176 3.91699C1.53048 6.45796 0.0443763 9.92776 0 13.5639V174.433C0.0428575 178.071 1.52801 181.543 4.1292 184.087C6.73038 186.631 10.2349 188.038 13.8727 187.999H174.072C177.717 188.045 181.231 186.642 183.843 184.098C186.454 181.555 187.95 178.078 188 174.433V13.5523C187.948 9.90894 186.452 6.4352 183.84 3.8943C181.229 1.35339 177.715 -0.0468545 174.072 0.0011971" fill="#0A66C2"/>
</svg>
